# Blender v2.71 (sub 0) OBJ File: 'haus.blend'
# www.blender.org
v -2.481631 2.856417 1.614082
v -2.481631 3.949504 -0.172329
v 2.518369 3.949504 -0.172329
v 2.518369 2.856417 1.614082
v -2.481631 3.065774 1.750718
v -2.481631 4.158862 -0.035693
v 2.518369 4.158862 -0.035693
v 2.518369 3.065774 1.750718
v 1.875004 0.001234 1.632121
v 1.875004 0.001234 -1.608498
v 2.125004 0.001234 -1.608498
v 2.125004 0.001234 1.632121
v 1.875004 0.251234 1.632121
v 1.875004 0.251234 -1.608498
v 2.125004 0.251234 -1.608498
v 2.125004 0.251234 1.632121
v -2.175559 -0.010062 1.624980
v -2.175559 -0.010062 1.374980
v 2.175559 -0.010062 1.374980
v 2.175559 -0.010062 1.624980
v -2.175559 0.239938 1.624980
v -2.175559 0.239938 1.374980
v 2.175559 0.239938 1.374980
v 2.175559 0.239938 1.624980
v 1.879678 0.026686 -1.332401
v 1.879678 0.026686 -1.582401
v 2.129678 0.026686 -1.582401
v 2.129678 0.026686 -1.332401
v 1.879678 2.992504 -1.332401
v 1.879678 2.992504 -1.582401
v 2.129678 2.992504 -1.582401
v 2.129678 2.992504 -1.332401
v 2.000000 0.000000 -1.500000
v 2.000000 0.000000 1.500000
v -2.000000 0.000000 1.500000
v -1.999999 0.000000 -1.500000
v 2.000001 2.000000 -1.499999
v 1.999999 2.000000 1.500001
v -2.000001 2.000000 1.500000
v -2.000000 2.000000 -1.500000
v 2.000001 3.000000 -1.499999
v 1.999999 3.000000 1.500001
v -2.000001 3.000000 1.500000
v -2.000000 3.000000 -1.500000
v 2.000000 4.000000 0.000001
v 0.000000 3.000000 -1.500000
v -0.000001 3.000000 1.500000
v -2.000000 4.000000 -0.000000
v -0.000000 4.000000 0.000000
v 1.879678 0.026686 1.618500
v 1.879678 0.026686 1.368500
v 2.129678 0.026686 1.368500
v 2.129678 0.026686 1.618500
v 1.879678 2.983396 1.618500
v 1.879678 2.983396 1.368500
v 2.129678 2.983396 1.368500
v 2.129678 2.983396 1.618500
v -2.115788 0.026686 1.618500
v -2.115788 0.026686 1.368500
v -1.865788 0.026686 1.368500
v -1.865788 0.026686 1.618500
v -2.115788 3.006417 1.618500
v -2.115788 3.006417 1.368500
v -1.865788 3.006417 1.368500
v -1.865788 3.006417 1.618500
v -2.115788 0.026686 -1.320693
v -2.115788 0.026686 -1.570693
v -1.865788 0.026686 -1.570693
v -1.865788 0.026686 -1.320693
v -2.115788 2.991108 -1.320693
v -2.115788 2.991108 -1.570693
v -1.865788 2.991108 -1.570693
v -1.865788 2.991108 -1.320693
v 1.875004 2.754416 1.632121
v 1.875004 2.754416 -1.608498
v 2.125004 2.754416 -1.608498
v 2.125004 2.754416 1.632121
v 1.875004 3.004416 1.632121
v 1.875004 3.004416 -1.608498
v 2.125004 3.004416 -1.608498
v 2.125004 3.004416 1.632121
v -2.111263 0.001234 1.632121
v -2.111263 0.001234 -1.608498
v -1.861263 0.001234 -1.608498
v -1.861263 0.001234 1.632121
v -2.111263 0.251234 1.632121
v -2.111263 0.251234 -1.608498
v -1.861263 0.251234 -1.608498
v -1.861263 0.251234 1.632121
v -2.111263 2.754416 1.632121
v -2.111263 2.754416 -1.608498
v -1.861263 2.754416 -1.608498
v -1.861263 2.754416 1.632121
v -2.111263 3.004416 1.632121
v -2.111263 3.004416 -1.608498
v -1.861263 3.004416 -1.608498
v -1.861263 3.004416 1.632121
v -2.481631 3.957845 0.075587
v -2.481631 2.877646 -1.645874
v 2.518369 2.877646 -1.645874
v 2.518369 3.957845 0.075587
v -2.481631 4.168245 -0.059437
v -2.481631 3.088047 -1.780899
v 2.518369 3.088047 -1.780899
v 2.518369 4.168245 -0.059437
v -2.175559 -0.010062 -1.324146
v -2.175559 -0.010062 -1.574146
v 2.175559 -0.010062 -1.574146
v 2.175559 -0.010062 -1.324146
v -2.175559 0.239938 -1.324146
v -2.175559 0.239938 -1.574146
v 2.175559 0.239938 -1.574146
v 2.175559 0.239938 -1.324146
v -2.175559 2.727600 1.624980
v -2.175559 2.727600 1.374980
v 2.175559 2.727600 1.374980
v 2.175559 2.727600 1.624980
v -2.175559 2.977600 1.624980
v -2.175559 2.977600 1.374980
v 2.175559 2.977600 1.374980
v 2.175559 2.977600 1.624980
v -2.175559 2.746451 -1.324146
v -2.175559 2.746451 -1.574146
v 2.175559 2.746451 -1.574146
v 2.175559 2.746451 -1.324146
v -2.175559 2.996451 -1.324146
v -2.175559 2.996451 -1.574146
v 2.175559 2.996451 -1.574146
v 2.175559 2.996451 -1.324146
vt 1.000000 0.000000
vt 1.000000 1.000000
vt 0.000000 1.000000
vt 0.975528 0.654508
vt 0.793893 0.095491
vt 0.206107 0.095492
vt 0.000000 0.000000
vt 0.251953 0.746094
vt 0.251953 0.996094
vt 0.001953 0.996094
vt 0.397511 0.753030
vt 0.495067 0.753030
vt 0.495067 0.948142
vt 0.285156 0.746094
vt 0.347656 0.746094
vt 0.347656 0.996094
vt 0.500000 1.000000
vt 0.024472 0.654509
vt 0.001953 0.746094
vt 0.397511 0.948142
vt 0.285156 0.996094
vt 0.503906 -0.003907
vt 0.503907 0.246093
vt 0.003907 0.246094
vt 0.003906 -0.003906
vt 0.073242 0.932617
vt 0.088867 0.932617
vt 0.088867 0.995117
vt 0.535479 0.722736
vt 0.535478 0.253683
vt 0.497239 0.268600
vt 0.508006 0.701972
vt 0.508006 0.232919
vt 0.469768 0.716890
vt 0.469767 0.247837
vt 0.497240 0.737653
vt 0.794893 0.917827
vt 0.794893 0.872313
vt 0.200384 0.836954
vt 0.805544 0.906080
vt 0.805544 0.860567
vt 0.211036 0.870721
vt 0.211036 0.825207
vt 0.200385 0.882468
vt 0.001953 -0.003906
vt 0.501953 -0.003906
vt 0.501954 0.246094
vt 0.001954 0.246094
vt 0.073242 0.995117
vt 0.276816 0.772303
vt 0.326700 0.772303
vt 0.326700 0.971837
vt 0.276816 0.971837
vn -1.000000 0.000000 0.000000
vn 0.000000 0.000000 -1.000000
vn 1.000000 0.000000 0.000000
vn 0.000000 0.000000 1.000000
vn 0.000000 -1.000000 0.000000
vn 0.000000 1.000000 0.000000
vn -0.000000 0.832100 0.554700
vn 0.000000 0.832100 -0.554700
vn 0.000000 0.546500 -0.837400
vn 0.000000 -0.546500 0.837400
vn 0.000000 -0.853000 -0.521900
vn 0.000000 0.853000 0.521900
vn 0.000000 -0.540100 -0.841600
vn 0.000000 0.540100 0.841600
vn 0.000000 -0.847000 0.531500
vn 0.000000 0.847000 -0.531500
s off
f 14/1/1 10/2/1 9/3/1
f 15/1/2 11/2/2 10/3/2
f 16/1/3 12/2/3 11/3/3
f 13/1/4 9/2/4 12/3/4
f 10/1/5 11/2/5 12/3/5
f 15/1/6 14/2/6 13/3/6
f 34/1/5 35/2/5 36/3/5
f 39/4/1 43/5/1 48/6/1
f 37/1/3 38/2/3 34/3/3
f 34/7/4 38/1/4 39/2/4
f 35/7/1 39/1/1 40/2/1
f 33/1/2 36/2/2 40/3/2
f 49/7/7 48/1/7 43/2/7
f 38/4/4 42/5/4 47/6/4
f 40/4/2 44/5/2 46/6/2
f 37/4/3 41/5/3 45/6/3
f 45/7/7 49/1/7 47/2/7
f 41/7/8 46/1/8 49/2/8
f 44/1/8 48/2/8 49/3/8
f 71/1/1 67/2/1 66/3/1
f 72/1/2 68/2/2 67/3/2
f 73/1/3 69/2/3 68/3/3
f 70/1/4 66/2/4 69/3/4
f 67/1/5 68/2/5 69/3/5
f 72/1/6 71/2/6 70/3/6
f 87/1/1 83/2/1 82/3/1
f 88/1/2 84/2/2 83/3/2
f 89/1/3 85/2/3 84/3/3
f 86/1/4 82/2/4 85/3/4
f 83/1/5 84/2/5 85/3/5
f 88/1/6 87/2/6 86/3/6
f 95/1/1 91/2/1 90/3/1
f 96/1/2 92/2/2 91/3/2
f 97/1/3 93/2/3 92/3/3
f 94/1/4 90/2/4 93/3/4
f 91/1/5 92/2/5 93/3/5
f 96/1/6 95/2/6 94/3/6
f 127/8/1 123/9/1 122/10/1
f 128/11/2 124/12/2 123/13/2
f 129/8/3 125/9/3 124/10/3
f 126/14/4 122/15/4 125/16/4
f 123/14/5 124/15/5 125/16/5
f 128/14/6 127/15/6 126/16/6
f 13/7/1 14/1/1 9/3/1
f 14/7/2 15/1/2 10/3/2
f 15/7/3 16/1/3 11/3/3
f 16/7/4 13/1/4 12/3/4
f 9/7/5 10/1/5 12/3/5
f 16/7/6 15/1/6 13/3/6
f 33/7/5 34/1/5 36/3/5
f 39/4/1 48/6/1 40/17/1
f 33/7/3 37/1/3 34/3/3
f 35/3/4 34/7/4 39/2/4
f 48/6/1 44/18/1 40/17/1
f 36/3/1 35/7/1 40/2/1
f 37/7/2 33/1/2 40/3/2
f 47/3/7 49/7/7 43/2/7
f 38/4/4 47/6/4 39/17/4
f 40/4/2 46/6/2 37/17/2
f 37/4/3 45/6/3 38/17/3
f 47/6/4 43/18/4 39/17/4
f 42/3/7 45/7/7 47/2/7
f 46/6/2 41/18/2 37/17/2
f 45/3/8 41/7/8 49/2/8
f 45/6/3 42/18/3 38/17/3
f 46/7/8 44/1/8 49/3/8
f 70/7/1 71/1/1 66/3/1
f 71/7/2 72/1/2 67/3/2
f 72/7/3 73/1/3 68/3/3
f 73/7/4 70/1/4 69/3/4
f 66/7/5 67/1/5 69/3/5
f 73/7/6 72/1/6 70/3/6
f 86/7/1 87/1/1 82/3/1
f 87/7/2 88/1/2 83/3/2
f 88/7/3 89/1/3 84/3/3
f 89/7/4 86/1/4 85/3/4
f 82/7/5 83/1/5 85/3/5
f 89/7/6 88/1/6 86/3/6
f 94/7/1 95/1/1 90/3/1
f 95/7/2 96/1/2 91/3/2
f 96/7/3 97/1/3 92/3/3
f 97/7/4 94/1/4 93/3/4
f 90/7/5 91/1/5 93/3/5
f 97/7/6 96/1/6 94/3/6
f 126/19/1 127/8/1 122/10/1
f 127/20/2 128/11/2 123/13/2
f 128/19/3 129/8/3 124/10/3
f 129/21/4 126/14/4 125/16/4
f 122/21/5 123/14/5 125/16/5
f 129/21/6 128/14/6 126/16/6
f 5/22/1 6/23/1 2/24/1
f 7/23/9 3/24/9 2/25/9
f 8/23/3 4/24/3 3/25/3
f 5/23/10 1/24/10 4/25/10
f 2/23/11 3/24/11 4/25/11
f 7/23/12 6/24/12 5/25/12
f 22/8/1 18/9/1 17/10/1
f 23/26/2 19/27/2 18/28/2
f 24/8/3 20/9/3 19/10/3
f 21/14/4 17/15/4 20/16/4
f 18/14/5 19/15/5 20/16/5
f 23/14/6 22/15/6 21/16/6
f 30/29/1 26/30/1 25/31/1
f 31/32/2 27/33/2 26/30/2
f 32/34/3 28/35/3 27/33/3
f 29/36/4 25/31/4 28/35/4
f 26/30/5 27/33/5 28/35/5
f 31/32/6 30/29/6 29/36/6
f 55/1/1 51/2/1 50/3/1
f 56/1/2 52/2/2 51/3/2
f 57/1/3 53/2/3 52/3/3
f 54/1/4 50/2/4 53/3/4
f 51/1/5 52/2/5 53/3/5
f 56/1/6 55/2/6 54/3/6
f 63/1/1 59/2/1 58/3/1
f 64/1/2 60/2/2 59/3/2
f 65/1/3 61/2/3 60/3/3
f 62/1/4 58/2/4 61/3/4
f 59/1/5 60/2/5 61/3/5
f 64/1/6 63/2/6 62/3/6
f 79/37/1 75/38/1 74/39/1
f 80/40/2 76/41/2 75/38/2
f 81/42/3 77/43/3 76/41/3
f 78/44/4 74/39/4 77/43/4
f 75/38/5 76/41/5 77/43/5
f 80/40/6 79/37/6 78/44/6
f 103/45/1 99/46/1 98/47/1
f 104/45/13 100/46/13 99/47/13
f 104/48/3 105/45/3 101/46/3
f 102/45/14 98/46/14 101/47/14
f 99/45/15 100/46/15 101/47/15
f 104/45/16 103/46/16 102/47/16
f 1/25/1 5/22/1 2/24/1
f 6/22/9 7/23/9 2/25/9
f 7/22/3 8/23/3 3/25/3
f 8/22/10 5/23/10 4/25/10
f 1/22/11 2/23/11 4/25/11
f 8/22/12 7/23/12 5/25/12
f 21/19/1 22/8/1 17/10/1
f 22/49/2 23/26/2 18/28/2
f 23/19/3 24/8/3 19/10/3
f 24/21/4 21/14/4 20/16/4
f 17/21/5 18/14/5 20/16/5
f 24/21/6 23/14/6 21/16/6
f 29/36/1 30/29/1 25/31/1
f 30/29/2 31/32/2 26/30/2
f 31/32/3 32/34/3 27/33/3
f 32/34/4 29/36/4 28/35/4
f 25/31/5 26/30/5 28/35/5
f 32/34/6 31/32/6 29/36/6
f 54/7/1 55/1/1 50/3/1
f 55/7/2 56/1/2 51/3/2
f 56/7/3 57/1/3 52/3/3
f 57/7/4 54/1/4 53/3/4
f 50/7/5 51/1/5 53/3/5
f 57/7/6 56/1/6 54/3/6
f 62/7/1 63/1/1 58/3/1
f 63/7/2 64/1/2 59/3/2
f 64/7/3 65/1/3 60/3/3
f 65/7/4 62/1/4 61/3/4
f 58/7/5 59/1/5 61/3/5
f 65/7/6 64/1/6 62/3/6
f 78/44/1 79/37/1 74/39/1
f 79/37/2 80/40/2 75/38/2
f 80/40/3 81/42/3 76/41/3
f 81/42/4 78/44/4 77/43/4
f 74/39/5 75/38/5 77/43/5
f 81/42/6 80/40/6 78/44/6
f 102/48/1 103/45/1 98/47/1
f 103/48/13 104/45/13 99/47/13
f 100/47/3 104/48/3 101/46/3
f 105/48/14 102/45/14 101/47/14
f 98/48/15 99/45/15 101/47/15
f 105/48/16 104/45/16 102/47/16
f 111/8/1 107/9/1 106/10/1
f 112/50/2 108/51/2 107/52/2
f 113/8/3 109/9/3 108/10/3
f 110/14/4 106/15/4 109/16/4
f 107/14/5 108/15/5 109/16/5
f 112/14/6 111/15/6 110/16/6
f 110/19/1 111/8/1 106/10/1
f 111/53/2 112/50/2 107/52/2
f 112/19/3 113/8/3 108/10/3
f 113/21/4 110/14/4 109/16/4
f 106/21/5 107/14/5 109/16/5
f 113/21/6 112/14/6 110/16/6
f 119/8/1 115/9/1 114/10/1
f 120/26/2 116/27/2 115/28/2
f 121/8/3 117/9/3 116/10/3
f 118/14/4 114/15/4 117/16/4
f 115/14/5 116/15/5 117/16/5
f 120/14/6 119/15/6 118/16/6
f 118/19/1 119/8/1 114/10/1
f 119/49/2 120/26/2 115/28/2
f 120/19/3 121/8/3 116/10/3
f 121/21/4 118/14/4 117/16/4
f 114/21/5 115/14/5 117/16/5
f 121/21/6 120/14/6 118/16/6
